<svg
  xmlns="http://www.w3.org/2000/svg"
  width="792"
  height="792"
  style="enable-background:new 0 0 792 792"
  xml:space="preserve"
>
<path
    d="M539.867 24.775H252.158c-14.153 0-27.043 5.827-36.376 15.159-9.358 9.333-15.185 22.249-15.185 36.376v639.354c0 14.153 5.827 27.044 15.159 36.376l.542.619c9.307 8.972 21.991 14.54 35.834 14.54h287.709c14.153 0 27.045-5.826 36.377-15.159 9.332-9.332 15.158-22.248 15.158-36.376V76.31c0-14.153-5.826-27.069-15.158-36.376l-.567-.619c-9.255-8.971-21.939-14.54-35.784-14.54zM252.158 0h287.709c20.547 0 39.264 8.275 53.03 21.63l.877.799c13.817 13.818 22.403 32.896 22.403 53.907V715.69c0 21.011-8.61 40.113-22.403 53.905C579.956 783.39 560.853 792 539.867 792H252.158c-20.547 0-39.29-8.275-53.056-21.63l-.876-.799c-13.793-13.793-22.404-32.896-22.404-53.907V76.31c0-21.011 8.611-40.088 22.429-53.907C212.044 8.611 231.147 0 252.158 0z"
  /><path
    d="M552.242 523.857c0 6.832-5.568 12.375-12.375 12.375-6.831 0-12.4-5.568-12.4-12.375V88.71H264.558v486.708h275.309c6.832 0 12.375 5.568 12.375 12.4s-5.568 12.399-12.375 12.399H252.158c-6.832 0-12.375-5.567-12.375-12.399V76.31c0-6.832 5.568-12.375 12.375-12.375h287.709c6.832 0 12.375 5.542 12.375 12.375v447.547zM395.987 672.121c-3.197 0-6.11 1.289-8.198 3.377a11.6 11.6 0 0 0-3.403 8.198c0 3.196 1.289 6.109 3.403 8.197l.412.438a11.668 11.668 0 0 0 7.786 2.965c3.223 0 6.136-1.289 8.224-3.377l-.024-.026a11.494 11.494 0 0 0 3.401-8.197c0-3.224-1.289-6.137-3.352-8.225l-.025.025c-2.088-2.086-5.001-3.375-8.224-3.375zm-25.703-14.128c6.574-6.573 15.674-10.647 25.703-10.647a36.33 36.33 0 0 1 25.729 10.647l-.024.025.024.025c6.549 6.574 10.647 15.648 10.647 25.651a36.328 36.328 0 0 1-10.647 25.729l-.024-.025-.026.025c-6.573 6.548-15.674 10.646-25.677 10.646-9.59 0-18.33-3.765-24.801-9.822l-.902-.824a36.324 36.324 0 0 1-10.647-25.729c-.003-10.051 4.071-19.127 10.645-25.701zM475.932 696.097c-6.831 0-12.399-5.567-12.399-12.399s5.568-12.374 12.399-12.374h63.936c6.832 0 12.375 5.542 12.375 12.374s-5.568 12.399-12.375 12.399h-63.936zM252.158 696.097c-6.832 0-12.375-5.567-12.375-12.399s5.568-12.374 12.375-12.374h63.936c6.832 0 12.4 5.542 12.4 12.374s-5.569 12.399-12.4 12.399h-63.936z"
  /></svg>
